<?xml version="1.0" encoding="UTF-8"?>
<!DOCTYPE svg PUBLIC "-//W3C//DTD SVG 1.1//EN" "http://www.w3.org/Graphics/SVG/1.1/DTD/svg11.dtd">
<svg xmlns="http://www.w3.org/2000/svg" version="1.1" width="512px" height="512px" style="shape-rendering:geometricPrecision; text-rendering:geometricPrecision; image-rendering:optimizeQuality; fill-rule:evenodd; clip-rule:evenodd" xmlns:xlink="http://www.w3.org/1999/xlink">
<g><path style="opacity:0.964" fill="#000000" d="M 208.5,31.5 C 258.169,27.5838 296.002,46.5838 322,88.5C 338.469,121.889 339.802,155.889 326,190.5C 301.36,237.913 262.194,259.413 208.5,255C 154.333,244.833 122.167,212.667 112,158.5C 107.59,108.821 126.423,70.988 168.5,45C 181.224,38.3286 194.557,33.8286 208.5,31.5 Z M 222.5,63.5 C 259.64,65.8058 285.14,84.1392 299,118.5C 308.797,157.122 297.63,187.956 265.5,211C 228.702,230.245 195.202,225.745 165,197.5C 145.287,174.271 139.62,147.938 148,118.5C 161.411,84.7096 186.245,66.3763 222.5,63.5 Z"/></g>
<g><path style="opacity:0.983" fill="#000000" d="M 158.5,287.5 C 201.835,287.333 245.168,287.5 288.5,288C 308.082,290.194 326.416,296.194 343.5,306C 352.395,314.711 352.729,323.711 344.5,333C 341.263,334.968 337.763,336.135 334,336.5C 324.14,332.823 314.307,328.99 304.5,325C 298.568,323.35 292.568,322.017 286.5,321C 244.5,319 202.5,319 160.5,321C 109.868,330.632 78.3676,360.466 66,410.5C 64.4085,422.782 63.5751,435.115 63.5,447.5C 156.167,447.333 248.834,447.5 341.5,448C 350.482,452.473 353.649,459.64 351,469.5C 349.167,474 346,477.167 341.5,479C 241.5,479.667 141.5,479.667 41.5,479C 37,477.167 33.8333,474 32,469.5C 31.0855,448.8 31.4188,428.133 33,407.5C 43.7525,354.085 74.2525,316.918 124.5,296C 135.73,292.192 147.063,289.359 158.5,287.5 Z"/></g>
<g><path style="opacity:0.988" fill="#000000" d="M 393.5,319.5 C 403.36,317.35 410.527,320.683 415,329.5C 415.5,347.497 415.667,365.497 415.5,383.5C 433.503,383.333 451.503,383.5 469.5,384C 476.487,386.807 479.82,391.973 479.5,399.5C 479.82,407.027 476.487,412.193 469.5,415C 451.503,415.5 433.503,415.667 415.5,415.5C 415.667,433.503 415.5,451.503 415,469.5C 412.193,476.487 407.027,479.82 399.5,479.5C 391.973,479.82 386.807,476.487 384,469.5C 383.5,451.503 383.333,433.503 383.5,415.5C 365.497,415.667 347.497,415.5 329.5,415C 322.513,412.193 319.18,407.027 319.5,399.5C 319.18,391.973 322.513,386.807 329.5,384C 347.497,383.5 365.497,383.333 383.5,383.5C 383.333,365.497 383.5,347.497 384,329.5C 386.022,324.98 389.189,321.647 393.5,319.5 Z"/></g>
</svg>
