<?xml version="1.0" encoding="UTF-8"?>
<!DOCTYPE svg PUBLIC "-//W3C//DTD SVG 1.1//EN" "http://www.w3.org/Graphics/SVG/1.1/DTD/svg11.dtd">
<svg xmlns="http://www.w3.org/2000/svg" version="1.1" width="512px" height="512px" style="shape-rendering:geometricPrecision; text-rendering:geometricPrecision; image-rendering:optimizeQuality; fill-rule:evenodd; clip-rule:evenodd" xmlns:xlink="http://www.w3.org/1999/xlink">
<g><path style="opacity:0.966" fill="#ffffff" d="M 236.5,31.5 C 314.056,27.379 378.223,54.379 429,112.5C 477.656,175.451 491.323,245.451 470,322.5C 440.934,405.617 383.434,456.783 297.5,476C 212.478,489.109 141.312,463.942 84,400.5C 34.0968,337.655 19.7635,267.322 41,189.5C 68.8472,107.822 124.681,56.6549 208.5,36C 217.95,34.3238 227.283,32.8238 236.5,31.5 Z M 237.5,64.5 C 290.514,60.9909 337.514,75.8242 378.5,109C 362.333,125.167 346.167,141.333 330,157.5C 317.437,122.78 292.604,104.447 255.5,102.5C 215.455,105.044 190.289,125.711 180,164.5C 175.279,192.001 182.779,215.501 202.5,235C 154.344,260.127 131.011,299.96 132.5,354.5C 124.848,362.652 117.015,370.652 109,378.5C 61.8497,317.784 52.183,251.451 80,179.5C 105.922,123.251 148.755,86.7512 208.5,70C 218.263,67.9315 227.93,66.0981 237.5,64.5 Z M 401.5,132.5 C 440.325,179.795 454.159,233.795 443,294.5C 424.678,368.489 379.178,416.989 306.5,440C 242.139,455.739 184.139,443.072 132.5,402C 138.667,395.833 144.833,389.667 151,383.5C 169.11,395.205 188.944,402.372 210.5,405C 254.33,411.911 297.33,408.577 339.5,395C 350.62,390.363 360.453,383.863 369,375.5C 376.78,366.661 380.28,356.327 379.5,344.5C 376.46,294.897 353.126,258.397 309.5,235C 317.298,226.575 323.464,217.075 328,206.5C 352.702,181.965 377.202,157.299 401.5,132.5 Z M 249.5,135.5 C 275.921,134.773 292.421,147.107 299,172.5C 299.851,178.253 299.517,183.92 298,189.5C 287.167,200.333 276.333,211.167 265.5,222C 244.426,225.879 228.26,218.713 217,200.5C 206.934,176.93 212.101,157.43 232.5,142C 238.02,139.11 243.686,136.943 249.5,135.5 Z M 275.5,258.5 C 318.214,270.93 341.881,299.264 346.5,343.5C 347.124,350.722 344.124,355.888 337.5,359C 316.708,369.16 294.708,374.493 271.5,375C 245.791,376.635 220.457,374.302 195.5,368C 188.943,366.054 182.609,363.554 176.5,360.5C 175.479,359.998 175.312,359.332 176,358.5C 209.368,325.299 242.535,291.965 275.5,258.5 Z M 224.5,262.5 C 206.833,280.833 188.833,298.833 170.5,316.5C 180.167,290.167 198.167,272.167 224.5,262.5 Z"/></g>
</svg>
