<?xml version="1.0" encoding="UTF-8"?>
<!DOCTYPE svg PUBLIC "-//W3C//DTD SVG 1.1//EN" "http://www.w3.org/Graphics/SVG/1.1/DTD/svg11.dtd">
<svg xmlns="http://www.w3.org/2000/svg" version="1.1" width="512px" height="512px" style="shape-rendering:geometricPrecision; text-rendering:geometricPrecision; image-rendering:optimizeQuality; fill-rule:evenodd; clip-rule:evenodd" xmlns:xlink="http://www.w3.org/1999/xlink">
<g><path style="opacity:0.991" fill="#000000" d="M 147.5,-0.5 C 254.833,-0.5 362.167,-0.5 469.5,-0.5C 478.211,3.04976 484.045,9.38309 487,18.5C 487.667,144.833 487.667,271.167 487,397.5C 484.674,403.821 480.84,408.987 475.5,413C 418.405,445.874 361.405,478.707 304.5,511.5C 299.5,511.5 294.5,511.5 289.5,511.5C 280.184,508.349 274.017,502.016 271,492.5C 270.5,467.169 270.333,441.836 270.5,416.5C 229.832,416.667 189.165,416.5 148.5,416C 138.307,413.14 131.807,406.64 129,396.5C 128.333,378.5 128.333,360.5 129,342.5C 135.02,326.239 146.52,320.072 163.5,324C 171.667,326.833 177.167,332.333 180,340.5C 181.356,348.095 181.856,355.762 181.5,363.5C 211.167,363.5 240.833,363.5 270.5,363.5C 270.333,286.166 270.5,208.833 271,131.5C 272.62,125.104 276.12,119.938 281.5,116C 312.5,95 343.5,74 374.5,53C 310.168,52.5 245.834,52.3333 181.5,52.5C 181.666,59.175 181.5,65.8417 181,72.5C 175.93,88.2951 165.097,94.7951 148.5,92C 138.235,88.7356 131.735,81.9022 129,71.5C 128.333,54.5 128.333,37.5 129,20.5C 131.5,10.1024 137.667,3.10237 147.5,-0.5 Z"/></g>
<g><path style="opacity:0.979" fill="#000000" d="M 94.5,141.5 C 112.497,141.332 122.497,150.166 124.5,168C 124.22,171.952 123.387,175.785 122,179.5C 118.213,184.956 114.046,190.123 109.5,195C 149.833,195.333 190.167,195.667 230.5,196C 246.75,201.995 252.916,213.495 249,230.5C 245.55,240.282 238.717,246.116 228.5,248C 189.167,248.333 149.833,248.667 110.5,249C 115.435,253.932 119.601,259.432 123,265.5C 127.841,286.491 119.675,298.824 98.5,302.5C 94.0074,301.929 89.674,300.763 85.5,299C 80.3656,294.867 75.5323,290.367 71,285.5C 57.3708,269.535 43.3708,253.869 29,238.5C 23.4586,230.154 22.1253,221.154 25,211.5C 27.5573,206.277 30.8906,201.61 35,197.5C 50.5,180.667 66,163.833 81.5,147C 85.7168,144.549 90.0501,142.715 94.5,141.5 Z"/></g>
</svg>
