<?xml version="1.0" encoding="UTF-8"?>
<!DOCTYPE svg PUBLIC "-//W3C//DTD SVG 1.1//EN" "http://www.w3.org/Graphics/SVG/1.1/DTD/svg11.dtd">
<svg xmlns="http://www.w3.org/2000/svg" version="1.1" width="512px" height="512px" style="shape-rendering:geometricPrecision; text-rendering:geometricPrecision; image-rendering:optimizeQuality; fill-rule:evenodd; clip-rule:evenodd" xmlns:xlink="http://www.w3.org/1999/xlink">
<g><path style="opacity:0.99" fill="#000000" d="M 207.5,-0.5 C 218.833,-0.5 230.167,-0.5 241.5,-0.5C 292.566,6.3979 322.066,35.3979 330,86.5C 332.891,124.154 327.224,160.488 313,195.5C 287.793,251.186 245.959,270.019 187.5,252C 168.442,242.942 153.942,229.109 144,210.5C 122.616,168.531 114.95,124.198 121,77.5C 131.949,31.7196 160.782,5.7196 207.5,-0.5 Z"/></g>
<g><path style="opacity:0.988" fill="#000000" d="M 139.5,246.5 C 145.983,252.142 152.649,257.642 159.5,263C 203.718,290.568 247.718,290.234 291.5,262C 297.316,257.018 302.983,251.851 308.5,246.5C 330.126,255.431 351.793,264.264 373.5,273C 379.921,277.044 385.255,282.211 389.5,288.5C 332.321,289.646 291.821,315.98 268,367.5C 253.247,408.309 257.747,446.809 281.5,483C 199.25,491.516 119.25,481.516 41.5,453C 31.2649,447.822 27.2649,439.489 29.5,428C 31.1419,392.315 36.3085,357.149 45,322.5C 49.1302,302.718 58.9636,286.551 74.5,274C 80.6273,270.621 86.9606,267.621 93.5,265C 109.692,260.665 125.026,254.499 139.5,246.5 Z"/></g>
<g><path style="opacity:0.977" fill="#000000" d="M 396.5,511.5 C 387.167,511.5 377.833,511.5 368.5,511.5C 327.591,503.766 300.424,480.099 287,440.5C 276.936,399.367 287.436,364.534 318.5,336C 350.004,312.251 384.337,307.251 421.5,321C 455.263,337.007 475.096,363.507 481,400.5C 484.237,449.538 463.737,484.371 419.5,505C 411.837,507.662 404.171,509.828 396.5,511.5 Z M 381.5,352.5 C 389.391,353.226 394.891,357.226 398,364.5C 398.5,375.161 398.667,385.828 398.5,396.5C 409.172,396.333 419.839,396.5 430.5,397C 441.962,402.655 444.795,411.155 439,422.5C 436.766,424.7 434.266,426.533 431.5,428C 420.555,429.379 409.555,429.879 398.5,429.5C 398.933,440.91 398.433,452.244 397,463.5C 390.52,472.77 382.353,474.603 372.5,469C 369.894,467.062 368.061,464.562 367,461.5C 365.656,450.882 365.156,440.216 365.5,429.5C 354.778,429.875 344.111,429.375 333.5,428C 322.081,421.413 319.914,412.579 327,401.5C 329.251,399.623 331.751,398.123 334.5,397C 344.828,396.5 355.161,396.334 365.5,396.5C 365.334,387.494 365.5,378.494 366,369.5C 366.9,359.773 372.067,354.106 381.5,352.5 Z"/></g>
</svg>
