<?xml version="1.0" standalone="no"?>
<!DOCTYPE svg PUBLIC "-//W3C//DTD SVG 20010904//EN"
 "http://www.w3.org/TR/2001/REC-SVG-20010904/DTD/svg10.dtd">
<svg version="1.0" xmlns="http://www.w3.org/2000/svg"
 width="1921.000000pt" height="1601.000000pt" viewBox="0 0 1921.000000 1601.000000"
 preserveAspectRatio="xMidYMid meet">

<g transform="translate(0.000000,1601.000000) scale(0.100000,-0.100000)"
fill="#841617" stroke="none">
<path d="M1170 15989 c-69 -4 -183 -19 -255 -34 -488 -99 -787 -338 -886 -710
-28 -106 -31 -321 -5 -440 28 -129 76 -262 141 -390 49 -98 8418 -13623 8602
-13903 66 -99 191 -228 305 -313 96 -72 253 -149 353 -175 93 -23 257 -23 350
0 99 25 256 103 351 173 104 78 239 214 297 300 66 98 8511 13732 8569 13833
144 253 221 543 203 760 -44 526 -477 854 -1190 900 -189 12 -16637 11 -16835
-1z"/>
</g>
</svg>
