<?xml version="1.0" encoding="UTF-8"?>
<!DOCTYPE svg PUBLIC "-//W3C//DTD SVG 1.1//EN" "http://www.w3.org/Graphics/SVG/1.1/DTD/svg11.dtd">
<svg xmlns="http://www.w3.org/2000/svg" version="1.1" width="512px" height="512px" style="shape-rendering:geometricPrecision; text-rendering:geometricPrecision; image-rendering:optimizeQuality; fill-rule:evenodd; clip-rule:evenodd" xmlns:xlink="http://www.w3.org/1999/xlink">
<g><path style="opacity:0.992" fill="#ffffff" d="M 67.5,15.5 C 132.168,15.3333 196.834,15.5 261.5,16C 270.482,20.4731 273.649,27.6397 271,37.5C 269.167,42 266,45.1667 261.5,47C 198.473,47.0257 135.473,47.6924 72.5,49C 61.6028,51.5629 54.1028,58.0629 50,68.5C 49.0551,72.1141 48.3884,75.7808 48,79.5C 47.3333,196.833 47.3333,314.167 48,431.5C 49.8333,450.667 60.3333,461.167 79.5,463C 140.167,463.333 200.833,463.667 261.5,464C 268.487,466.807 271.82,471.973 271.5,479.5C 271.82,487.027 268.487,492.193 261.5,495C 197.167,495.667 132.833,495.667 68.5,495C 40.1171,488.951 22.6171,471.784 16,443.5C 15.3333,318.167 15.3333,192.833 16,67.5C 22.6811,39.6527 39.8478,22.3193 67.5,15.5 Z"/></g>
<g><path style="opacity:0.982" fill="#ffffff" d="M 387.5,127.5 C 421.466,124.224 445.632,137.891 460,168.5C 469.302,198.811 461.802,223.977 437.5,244C 418.476,256.158 398.142,258.824 376.5,252C 345.736,237.652 332.236,213.486 336,179.5C 342.681,151.653 359.848,134.319 387.5,127.5 Z"/></g>
<g><path style="opacity:0.989" fill="#ffffff" d="M 185.5,143.5 C 195.36,141.35 202.527,144.683 207,153.5C 207.5,171.497 207.667,189.497 207.5,207.5C 225.503,207.333 243.503,207.5 261.5,208C 266,209.833 269.167,213 271,217.5C 271.667,242.833 271.667,268.167 271,293.5C 269.167,298 266,301.167 261.5,303C 243.503,303.5 225.503,303.667 207.5,303.5C 207.667,321.503 207.5,339.503 207,357.5C 202.527,366.482 195.36,369.649 185.5,367C 184.167,366.333 182.833,365.667 181.5,365C 148.333,331.833 115.167,298.667 82,265.5C 78.6667,258.833 78.6667,252.167 82,245.5C 116.09,210.909 150.59,176.909 185.5,143.5 Z"/></g>
<g><path style="opacity:0.989" fill="#ffffff" d="M 342.5,274.5 C 345.85,274.335 349.183,274.502 352.5,275C 383.833,290.333 415.167,290.333 446.5,275C 452.304,273.776 457.638,274.776 462.5,278C 491.602,305.309 501.769,338.476 493,377.5C 491.062,380.106 488.562,381.939 485.5,383C 428.167,383.667 370.833,383.667 313.5,383C 309,381.167 305.833,378 304,373.5C 298.13,335.772 308.964,303.938 336.5,278C 338.432,276.541 340.432,275.375 342.5,274.5 Z"/></g>
</svg>
