<?xml version="1.0" encoding="UTF-8"?>
<!DOCTYPE svg PUBLIC "-//W3C//DTD SVG 1.1//EN" "http://www.w3.org/Graphics/SVG/1.1/DTD/svg11.dtd">
<svg xmlns="http://www.w3.org/2000/svg" version="1.1" width="512px" height="512px" style="shape-rendering:geometricPrecision; text-rendering:geometricPrecision; image-rendering:optimizeQuality; fill-rule:evenodd; clip-rule:evenodd" xmlns:xlink="http://www.w3.org/1999/xlink">
<g><path style="opacity:0.949" fill="#ffffff" d="M 240.5,28.5 C 325.77,25.5582 393.936,57.8915 445,125.5C 456.397,141.622 465.731,158.955 473,177.5C 476.133,171.673 480.966,169.507 487.5,171C 494.128,174.091 496.628,179.257 495,186.5C 490.074,198.187 484.241,209.353 477.5,220C 473.339,222.793 469.006,223.126 464.5,221C 453.758,215.547 443.258,209.714 433,203.5C 428.967,195.94 430.467,189.773 437.5,185C 441.67,184.675 445.67,184.509 449.5,184.5C 423.855,122.688 379.189,81.5218 315.5,61C 232.725,39.9802 161.559,59.8135 102,120.5C 77.143,148.874 60.143,181.541 51,218.5C 43.3487,224.087 36.6821,223.087 31,215.5C 30.3333,211.833 30.3333,208.167 31,204.5C 50.996,131.175 95.496,78.6751 164.5,47C 188.991,36.8073 214.325,30.6406 240.5,28.5 Z"/></g>
<g><path style="opacity:0.967" fill="#ffffff" d="M 243.5,85.5 C 313.033,83.8413 366.2,112.175 403,170.5C 433.837,229.401 432.837,287.735 400,345.5C 358.179,406.482 300.346,432.316 226.5,423C 167.056,410.876 124.556,377.376 99,322.5C 74.3351,256.803 84.0018,196.803 128,142.5C 159.307,108.93 197.807,89.9298 243.5,85.5 Z M 244.5,102.5 C 311.51,101.408 361.01,130.074 393,188.5C 417.624,244.927 412.291,298.261 377,348.5C 373.352,353.315 369.185,357.648 364.5,361.5C 346.076,310.45 309.743,283.45 255.5,280.5C 201.257,283.45 164.924,310.45 146.5,361.5C 117.638,332.291 102.971,296.958 102.5,255.5C 104.214,200.683 127.548,157.85 172.5,127C 194.643,113.12 218.643,104.953 244.5,102.5 Z"/></g>
<g><path style="opacity:0.98" fill="#ffffff" d="M 248.5,156.5 C 276.607,155.299 296.774,167.299 309,192.5C 318.393,222.32 310.226,246.154 284.5,264C 253.718,278.012 227.884,271.845 207,245.5C 191.976,216.941 196.143,191.441 219.5,169C 228.278,162.581 237.944,158.414 248.5,156.5 Z"/></g>
<g><path style="opacity:0.949" fill="#ffffff" d="M 37.5,285.5 C 40.941,285.301 44.2744,285.801 47.5,287C 58.0744,292.201 68.241,298.035 78,304.5C 82.2956,312.116 80.7956,318.283 73.5,323C 69.3299,323.325 65.3299,323.491 61.5,323.5C 82.9728,378.472 120.64,417.972 174.5,442C 255,472.561 328.333,460.561 394.5,406C 426.93,375.994 448.764,339.494 460,296.5C 466.263,291.227 472.597,291.227 479,296.5C 480.336,299.009 481.17,301.676 481.5,304.5C 463.228,376.222 420.894,428.388 354.5,461C 277.209,494.002 202.542,489.002 130.5,446C 87.4738,417.303 56.6404,378.803 38,330.5C 33.4509,336.537 27.6176,338.037 20.5,335C 15.8468,331.212 14.3468,326.378 16,320.5C 20.6667,311.167 25.3333,301.833 30,292.5C 31.7424,289.254 34.2424,286.921 37.5,285.5 Z"/></g>
</svg>
