<?xml version="1.0" encoding="UTF-8"?>
<!DOCTYPE svg PUBLIC "-//W3C//DTD SVG 1.1//EN" "http://www.w3.org/Graphics/SVG/1.1/DTD/svg11.dtd">
<svg xmlns="http://www.w3.org/2000/svg" version="1.1" width="512px" height="512px" style="shape-rendering:geometricPrecision; text-rendering:geometricPrecision; image-rendering:optimizeQuality; fill-rule:evenodd; clip-rule:evenodd" xmlns:xlink="http://www.w3.org/1999/xlink">
<g><path style="opacity:0.983" fill="#ffffff" d="M 69.5,31.5 C 96.1687,31.3334 122.835,31.5 149.5,32C 158.482,36.4731 161.649,43.6397 159,53.5C 157.167,58 154,61.1667 149.5,63C 126.167,63.3333 102.833,63.6667 79.5,64C 70.3333,65.1667 65.1667,70.3333 64,79.5C 63.6667,102.833 63.3333,126.167 63,149.5C 58.5269,158.482 51.3603,161.649 41.5,159C 37,157.167 33.8333,154 32,149.5C 31.3333,122.833 31.3333,96.1667 32,69.5C 37.3488,49.6518 49.8488,36.9852 69.5,31.5 Z"/></g>
<g><path style="opacity:0.983" fill="#ffffff" d="M 361.5,31.5 C 388.169,31.3334 414.835,31.5 441.5,32C 461.333,37.1667 473.833,49.6667 479,69.5C 479.667,96.1667 479.667,122.833 479,149.5C 474.527,158.482 467.36,161.649 457.5,159C 453,157.167 449.833,154 448,149.5C 447.667,126.167 447.333,102.833 447,79.5C 445.833,70.3333 440.667,65.1667 431.5,64C 408.167,63.6667 384.833,63.3333 361.5,63C 354.513,60.1932 351.18,55.0265 351.5,47.5C 351.302,39.8846 354.635,34.5513 361.5,31.5 Z"/></g>
<g><path style="opacity:0.986" fill="#ffffff" d="M 119.5,95.5 C 145.502,95.3334 171.502,95.5 197.5,96C 206.482,100.473 209.649,107.64 207,117.5C 205.167,122 202,125.167 197.5,127C 174.169,127.5 150.836,127.667 127.5,127.5C 127.667,150.836 127.5,174.169 127,197.5C 124.193,204.487 119.027,207.82 111.5,207.5C 103.973,207.82 98.8068,204.487 96,197.5C 95.3333,171.5 95.3333,145.5 96,119.5C 99.349,106.985 107.182,98.9853 119.5,95.5 Z"/></g>
<g><path style="opacity:0.961" fill="#ffffff" d="M 249.5,95.5 C 259.36,93.3496 266.527,96.6829 271,105.5C 271.667,114.833 271.667,124.167 271,133.5C 266.527,142.482 259.36,145.649 249.5,143C 245,141.167 241.833,138 240,133.5C 239.333,124.167 239.333,114.833 240,105.5C 242.022,100.98 245.189,97.6467 249.5,95.5 Z"/></g>
<g><path style="opacity:0.988" fill="#ffffff" d="M 327.5,95.5 C 348.836,95.3334 370.169,95.5 391.5,96C 404,99.1667 411.833,107 415,119.5C 415.667,140.833 415.667,162.167 415,183.5C 411.833,196 404,203.833 391.5,207C 370.167,207.667 348.833,207.667 327.5,207C 315,203.833 307.167,196 304,183.5C 303.333,162.167 303.333,140.833 304,119.5C 307.349,106.985 315.182,98.9853 327.5,95.5 Z M 335.5,127.5 C 351.5,127.5 367.5,127.5 383.5,127.5C 383.5,143.5 383.5,159.5 383.5,175.5C 367.5,175.5 351.5,175.5 335.5,175.5C 335.5,159.5 335.5,143.5 335.5,127.5 Z"/></g>
<g><path style="opacity:0.984" fill="#ffffff" d="M 169.5,175.5 C 200.168,175.333 230.835,175.5 261.5,176C 270.482,180.473 273.649,187.64 271,197.5C 269.167,202 266,205.167 261.5,207C 230.833,207.667 200.167,207.667 169.5,207C 162.513,204.193 159.18,199.027 159.5,191.5C 159.302,183.885 162.635,178.551 169.5,175.5 Z"/></g>
<g><path style="opacity:0.992" fill="#ffffff" d="M 105.5,239.5 C 152.835,239.333 200.168,239.5 247.5,240C 260,243.167 267.833,251 271,263.5C 271.667,310.833 271.667,358.167 271,405.5C 266.527,414.482 259.36,417.649 249.5,415C 245,413.167 241.833,410 240,405.5C 239.5,360.835 239.333,316.168 239.5,271.5C 194.832,271.667 150.165,271.5 105.5,271C 98.513,268.193 95.1797,263.027 95.5,255.5C 95.3021,247.885 98.6354,242.551 105.5,239.5 Z"/></g>
<g><path style="opacity:0.961" fill="#ffffff" d="M 313.5,239.5 C 322.839,239.334 332.173,239.5 341.5,240C 350.482,244.473 353.649,251.64 351,261.5C 349.167,266 346,269.167 341.5,271C 332.167,271.667 322.833,271.667 313.5,271C 304.518,266.527 301.351,259.36 304,249.5C 306.022,244.98 309.189,241.647 313.5,239.5 Z"/></g>
<g><path style="opacity:0.961" fill="#ffffff" d="M 377.5,239.5 C 386.839,239.334 396.173,239.5 405.5,240C 414.482,244.473 417.649,251.64 415,261.5C 413.167,266 410,269.167 405.5,271C 396.167,271.667 386.833,271.667 377.5,271C 368.518,266.527 365.351,259.36 368,249.5C 370.022,244.98 373.189,241.647 377.5,239.5 Z"/></g>
<g><path style="opacity:0.988" fill="#ffffff" d="M 119.5,303.5 C 140.836,303.333 162.169,303.5 183.5,304C 196,307.167 203.833,315 207,327.5C 207.667,348.833 207.667,370.167 207,391.5C 203.833,404 196,411.833 183.5,415C 162.167,415.667 140.833,415.667 119.5,415C 107,411.833 99.1667,404 96,391.5C 95.3333,370.167 95.3333,348.833 96,327.5C 99.349,314.985 107.182,306.985 119.5,303.5 Z M 127.5,335.5 C 143.5,335.5 159.5,335.5 175.5,335.5C 175.5,351.5 175.5,367.5 175.5,383.5C 159.5,383.5 143.5,383.5 127.5,383.5C 127.5,367.5 127.5,351.5 127.5,335.5 Z"/></g>
<g><path style="opacity:0.988" fill="#ffffff" d="M 327.5,303.5 C 348.836,303.333 370.169,303.5 391.5,304C 404,307.167 411.833,315 415,327.5C 415.667,348.833 415.667,370.167 415,391.5C 411.833,404 404,411.833 391.5,415C 370.167,415.667 348.833,415.667 327.5,415C 315,411.833 307.167,404 304,391.5C 303.333,370.167 303.333,348.833 304,327.5C 307.349,314.985 315.182,306.985 327.5,303.5 Z M 335.5,335.5 C 351.5,335.5 367.5,335.5 383.5,335.5C 383.5,351.5 383.5,367.5 383.5,383.5C 367.5,383.5 351.5,383.5 335.5,383.5C 335.5,367.5 335.5,351.5 335.5,335.5 Z"/></g>
<g><path style="opacity:0.983" fill="#ffffff" d="M 41.5,351.5 C 51.36,349.35 58.5267,352.683 63,361.5C 63.3333,384.833 63.6667,408.167 64,431.5C 65.1667,440.667 70.3333,445.833 79.5,447C 102.833,447.333 126.167,447.667 149.5,448C 158.482,452.473 161.649,459.64 159,469.5C 157.167,474 154,477.167 149.5,479C 122.833,479.667 96.1667,479.667 69.5,479C 49.6667,473.833 37.1667,461.333 32,441.5C 31.3333,414.833 31.3333,388.167 32,361.5C 34.0223,356.98 37.189,353.647 41.5,351.5 Z"/></g>
<g><path style="opacity:0.983" fill="#ffffff" d="M 457.5,351.5 C 467.36,349.35 474.527,352.683 479,361.5C 479.667,388.167 479.667,414.833 479,441.5C 473.833,461.333 461.333,473.833 441.5,479C 414.833,479.667 388.167,479.667 361.5,479C 352.518,474.527 349.351,467.36 352,457.5C 353.833,453 357,449.833 361.5,448C 384.833,447.667 408.167,447.333 431.5,447C 440.667,445.833 445.833,440.667 447,431.5C 447.333,408.167 447.667,384.833 448,361.5C 450.022,356.98 453.189,353.647 457.5,351.5 Z"/></g>
</svg>
